<svg data-v-fde0c5aa="" xmlns="http://www.w3.org/2000/svg" viewBox="0 0 300 300" class="iconLeft"><!----><defs data-v-fde0c5aa=""><linearGradient data-v-fde0c5aa="" gradientTransform="rotate(25)" id="0ce15a57-5fb3-45d5-8bdb-4a726c826637" x1="0%" y1="0%" x2="100%" y2="0%"><stop data-v-fde0c5aa="" offset="0%" stop-color="#4E1A70" stop-opacity="1"></stop><stop data-v-fde0c5aa="" offset="100%" stop-color="#2B4CF2" stop-opacity="1"></stop></linearGradient></defs><rect data-v-fde0c5aa="" fill="url(#0ce15a57-5fb3-45d5-8bdb-4a726c826637)" x="0" y="0" width="300px" height="300px" class="logo-background-square"></rect><defs data-v-fde0c5aa=""><!----></defs><g data-v-fde0c5aa="" id="9218236f-7b21-4400-9094-53642a1bf951" fill="#ffffff" transform="matrix(3.073724880994274,0,0,3.073724880994274,107.26661635017952,117.61830738207229)"><path d="M9.18 4.31L6.23 12.03L3.28 4.31L1.02 4.31L1.02 14L2.55 14L2.55 6.17L5.53 14L6.93 14L9.91 6.17L9.91 14L11.44 14L11.44 4.31ZM18.41 7.11L16.28 11.80L14.13 7.11L12.60 7.11L15.61 13.23L13.82 16.76L15.33 16.76L19.91 7.11ZM28.08 4.31L24.91 4.31L24.91 14L28.08 14C31.02 14 33.05 12.01 33.05 9.14C33.05 6.30 31.02 4.31 28.08 4.31ZM28.07 12.64L26.43 12.64L26.43 5.67L28.07 5.67C30.10 5.67 31.50 7.07 31.50 9.13C31.50 11.21 30.10 12.64 28.07 12.64ZM39.94 7.11L39.94 8.11C39.34 7.41 38.46 6.99 37.44 6.99C35.49 6.99 34.06 8.48 34.06 10.56C34.06 12.63 35.49 14.13 37.44 14.13C38.46 14.13 39.34 13.71 39.94 13.01L39.94 14L41.37 14L41.37 7.11ZM37.73 12.88C36.46 12.88 35.53 11.91 35.53 10.56C35.53 9.21 36.46 8.23 37.73 8.23C39.02 8.23 39.94 9.21 39.94 10.56C39.94 11.91 39.02 12.88 37.73 12.88ZM48.19 7.11L46.06 11.80L43.90 7.11L42.38 7.11L45.39 13.23L43.60 16.76L45.11 16.76L49.69 7.11Z"></path></g><defs data-v-fde0c5aa=""><!----></defs><g data-v-fde0c5aa="" id="c8abab0a-4d47-41f3-8478-554c635753c7" stroke="none" fill="#ffffff" transform="matrix(1.7938067396927198,0,0,1.7938067396927198,40,121.29909216491649)"><path d="M0 32h32V0H0v32zM2.038 2.038h27.923v27.923H2.038V2.038z"></path><path d="M4.038 27.962h23.923V4.038H4.038v23.924zM21.049 8.25h3.402v3.402h-3.402V8.25zm0 6.049h3.402v3.402h-3.402v-3.402zm0 6.049h3.402v3.402h-3.402v-3.402zM14.299 8.25h3.402v3.402h-3.402V8.25zm0 6.049h3.402v3.402h-3.402v-3.402zm0 6.049h3.402v3.402h-3.402v-3.402zM7.549 8.25h3.402v3.402H7.549V8.25zm0 6.049h3.402v3.402H7.549v-3.402zm0 6.049h3.402v3.402H7.549v-3.402z"></path></g><!----></svg>