<svg data-v-fde0c5aa="" xmlns="http://www.w3.org/2000/svg" viewBox="0 0 300 300" class="font"><!----><defs data-v-fde0c5aa=""><linearGradient data-v-fde0c5aa="" gradientTransform="rotate(25)" id="e6410422-8d14-4f01-ae6e-39ba7a5ade66" x1="0%" y1="0%" x2="100%" y2="0%"><stop data-v-fde0c5aa="" offset="0%" stop-color="#4E1A70" stop-opacity="1"></stop><stop data-v-fde0c5aa="" offset="100%" stop-color="#2B4CF2" stop-opacity="1"></stop></linearGradient></defs><rect data-v-fde0c5aa="" fill="url(#e6410422-8d14-4f01-ae6e-39ba7a5ade66)" x="0" y="0" width="300px" height="300px" class="logo-background-square"></rect><defs data-v-fde0c5aa=""><!----></defs><g data-v-fde0c5aa="" id="acab7ad7-6551-4b99-9f10-604c8d6ce47a" fill="#ffffff" transform="matrix(4.520238509899403,0,0,4.520238509899403,35.3893568061193,102.37928583252577)"><path d="M9.18 4.31L6.23 12.03L3.28 4.31L1.02 4.31L1.02 14L2.55 14L2.55 6.17L5.53 14L6.93 14L9.91 6.17L9.91 14L11.44 14L11.44 4.31ZM18.41 7.11L16.28 11.80L14.13 7.11L12.60 7.11L15.61 13.23L13.82 16.76L15.33 16.76L19.91 7.11ZM28.08 4.31L24.91 4.31L24.91 14L28.08 14C31.02 14 33.05 12.01 33.05 9.14C33.05 6.30 31.02 4.31 28.08 4.31ZM28.07 12.64L26.43 12.64L26.43 5.67L28.07 5.67C30.10 5.67 31.50 7.07 31.50 9.13C31.50 11.21 30.10 12.64 28.07 12.64ZM39.94 7.11L39.94 8.11C39.34 7.41 38.46 6.99 37.44 6.99C35.49 6.99 34.06 8.48 34.06 10.56C34.06 12.63 35.49 14.13 37.44 14.13C38.46 14.13 39.34 13.71 39.94 13.01L39.94 14L41.37 14L41.37 7.11ZM37.73 12.88C36.46 12.88 35.53 11.91 35.53 10.56C35.53 9.21 36.46 8.23 37.73 8.23C39.02 8.23 39.94 9.21 39.94 10.56C39.94 11.91 39.02 12.88 37.73 12.88ZM48.19 7.11L46.06 11.80L43.90 7.11L42.38 7.11L45.39 13.23L43.60 16.76L45.11 16.76L49.69 7.11Z"></path></g><!----><!----></svg>